<?xml version="1.0" standalone="no"?><!DOCTYPE svg PUBLIC "-//W3C//DTD SVG 1.1//EN" "http://www.w3.org/Graphics/SVG/1.1/DTD/svg11.dtd"><svg class="icon" height="512" viewBox="0 0 1024 1024" version="1.1" xmlns="http://www.w3.org/2000/svg"><path d="M212.99784 292.556802c0 17.295471 14.071256 31.365703 31.365703 31.365703s31.365703-14.071256 31.365703-31.365703-14.071256-31.365703-31.365703-31.365703-31.365703 14.070232-31.365703 31.365703zM290.613467 455.366855l175.497017 175.497016a86.255171 86.255171 0 0 1 29.479706-5.169597c47.781656 0 86.655511 38.873854 86.65551 86.655511 0 47.78268-38.873854 86.656534-86.65551 86.656534-47.78268 0-86.656534-38.873854-86.656535-86.656534 0-17.203321 5.059017-33.236342 13.738494-46.732174L267.712224 510.656662H123.532788v164.832227h143.172957c35.463292 0 64.314333 28.852065 64.314333 64.314333V898.708177h327.533748l0.882589-264.596542a9.273329 9.273329 0 0 0-2.309885-6.15867l-109.72979-124.855648a64.038908 64.038908 0 0 1-15.931656-41.799094l-0.758699-104.156783c-34.084119-11.668197-58.666581-44.002496-58.666581-81.990689 0-47.781656 38.873854-86.655511 86.656534-86.65551 47.781656 0 86.655511 38.873854 86.655511 86.65551 0 38.243141-24.912154 70.756619-59.352585 82.223111l0.754604 103.519926a8.752172 8.752172 0 0 0 2.173708 5.704065l109.72979 124.859744a64.525253 64.525253 0 0 1 16.067833 42.840386l-0.882589 264.412241h88.526149V579.321484c0-35.602541 28.965716-64.568256 64.568256-64.568256h21.438111v-72.695858H758.365239c-35.581039 0-64.528325-28.947286-64.528325-64.528325V125.528341h-274.401267v129.962788c0 35.68138-29.029197 64.710576-64.710576 64.710576h-28.253092c-11.567856 34.263299-43.991233 59.010607-82.107412 59.010607-47.781656 0-86.655511-38.873854-86.65551-86.65551s38.873854-86.655511 86.65551-86.655511c38.116179 0 70.539556 24.748332 82.107412 59.010607h28.253092c5.19417 0 9.420769-4.225575 9.420769-9.420769V125.528341H159.985154c-20.272929 0-36.859872 16.586942-36.859872 36.859872v292.979666h167.488185zM749.126722 377.528021c0 5.094853 4.144688 9.238517 9.238517 9.238517h137.940903V162.388213c0-20.272929-16.586942-36.859872-36.859872-36.859872H749.126722v251.99968zM558.697362 243.784024c-17.295471 0-31.366727 14.071256-31.366727 31.365703s14.071256 31.365703 31.366727 31.365703 31.365703-14.071256 31.365703-31.365703-14.071256-31.365703-31.365703-31.365703zM866.937015 570.042011c-5.116355 0-9.278449 4.162094-9.278449 9.278449v319.388741h1.788728c20.272929 0 36.859872-16.586942 36.859872-36.859872v-291.807318H866.937015zM526.956917 712.349785c0-17.295471-14.070232-31.365703-31.365703-31.365703s-31.366727 14.070232-31.366727 31.365703 14.071256 31.366727 31.366727 31.366727 31.365703-14.07228 31.365703-31.366727zM275.73027 739.804246c0-4.976083-4.048443-9.024525-9.024525-9.024525H123.125282v131.070632c0 20.272929 16.586942 36.859872 36.859872 36.859871h115.745116V739.804246z" /></svg>